<?xml version="1.0" encoding="utf-8"?>
<!-- Generator: Adobe Illustrator 26.0.3, SVG Export Plug-In . SVG Version: 6.00 Build 0)  -->
<svg version="1.0" id="katman_1" xmlns="http://www.w3.org/2000/svg" xmlns:xlink="http://www.w3.org/1999/xlink" x="0px" y="0px"
	 viewBox="0 0 600 450" style="enable-background:new 0 0 600 450;" xml:space="preserve">
<style type="text/css">
	.st0{display:none;}
	.st1{display:inline;fill:none;stroke:#C3CDD1;stroke-width:21.8795;stroke-miterlimit:10;}
	.st2{display:inline;fill:none;stroke:#C3CDD1;stroke-width:16.4096;stroke-miterlimit:10;}
	.st3{fill:#282253;}
	.st4{fill:#FFFFFF;}
	.st5{display:none;fill:#00A098;}
	.st6{display:none;opacity:0.5;fill:#00A098;enable-background:new    ;}
	.st7{display:none;opacity:0.2;fill:#00A098;enable-background:new    ;}
	.st8{display:inline;fill:#00A098;}
	.st9{display:inline;opacity:0.5;fill:#00A098;enable-background:new    ;}
	.st10{display:inline;opacity:0.2;fill:#00A098;enable-background:new    ;}
</style>
<g class="st0">
	<path class="st1" d="M-471.9,339.3V440c0,18.7,15.2,33.9,33.9,33.9h310.4c18.3,0,33-14.8,33-33v-55c0-238.3,202.3-428,440-409.6
		C555.9-7.4,721.6,168.5,721.6,383.2v52.6c0,21.5,17.4,38.9,38.9,38.9h269.6c23.3,0,42.2-18.9,42.2-42.2v-85.2"/>
	<path class="st2" d="M-471.9,339.3V440c0,18.7,15.2,33.9,33.9,33.9h310.4c18.3,0,33-14.8,33-33v-55c0-238.3,202.3-428,440-409.6
		C555.9-7.4,721.6,168.5,721.6,383.2v52.6c0,21.5,17.4,38.9,38.9,38.9h269.6c23.3,0,42.2-18.9,42.2-42.2v-85.2"/>
</g>
<g>
	<circle class="st3" cx="291.5" cy="230.3" r="165.5"/>
	<g transform="translate(-145)">
		<g transform="translate(-857.924 -455.868)">
			<path class="st4" d="M1238.5,705.4h-10.4v-21.2c0-3.2-2.6-5.8-5.8-5.8c-3.2,0-5.8,2.6-5.8,5.8v21.2h-10.4v-21.2
				c0-8.9,7.2-16.2,16.2-16.2c9,0,16.2,7.2,16.2,16.2V705.4L1238.5,705.4z"/>
			<path class="st4" d="M1278.9,692.2c-1.2,4.1-3.6,7.6-7,10.2c-5.6,3.9-12.7,4.8-19.1,2.2c-2.3-1-4.4-2.5-6.1-4.4
				c-1.7-1.8-3.1-3.9-4-6.2c-0.9-2.3-1.4-4.8-1.4-7.2c0-2.5,0.5-4.9,1.5-7.1c1-2.3,2.4-4.4,4.1-6.1c1.8-1.8,3.8-3.2,6.1-4.2
				c2.3-0.9,4.8-1.5,7.2-1.4c4.1-0.1,8.3,1.2,11.7,3.6c3.4,2.7,5.8,6.4,7,10.5h-11.2c-0.7-1.2-1.8-2.2-3-2.8c-1.4-0.7-2.9-1-4.5-1
				c-2.2-0.1-4.4,0.8-5.9,2.5c-1.5,1.7-2.4,3.9-2.4,6.2c-0.1,2.4,0.8,4.8,2.4,6.5c2.8,2.5,6.8,3.1,10.1,1.5c1.2-0.6,2.3-1.5,3.1-2.7
				L1278.9,692.2L1278.9,692.2z"/>
			<path class="st4" d="M1286.6,673.6c1.8-1.8,3.9-3.2,6.2-4.2c2.2-1,4.7-1.5,7.1-1.5c2.5,0,5,0.5,7.3,1.3
				c4.7,1.9,8.4,5.5,10.5,10.2c1,2.3,1.5,4.8,1.5,7.3c0,2.5-0.5,5.1-1.4,7.5c-0.9,2.3-2.3,4.4-4.1,6.1c-1.8,1.8-3.9,3.2-6.2,4.2
				c-2.4,1-4.9,1.5-7.5,1.5c-2.6,0-5.1-0.5-7.5-1.5c-2.3-1-4.4-2.5-6.1-4.4c-1.7-1.8-3.1-3.8-4-6.1s-1.4-4.8-1.4-7.2
				c0-2.5,0.5-4.9,1.5-7.2C1283.5,677.4,1284.9,675.4,1286.6,673.6z M1300.1,695.9c2.3,0,4.4-0.9,6.1-2.6c1.6-1.7,2.5-3.9,2.5-6.3
				s-0.9-4.6-2.5-6.4c-3.1-3.4-8.4-3.5-11.7-0.3c-0.2,0.1-0.2,0.2-0.3,0.3c-1.6,1.7-2.5,4-2.5,6.4s0.9,4.6,2.5,6.3
				C1295.7,694.9,1297.9,695.9,1300.1,695.9L1300.1,695.9z"/>
			<path class="st4" d="M1322.1,688.3v17h10.4v-17c0-5.5,4.5-10,10-10v-10.4C1331.3,667.9,1322.1,677.1,1322.1,688.3z"/>
			<path class="st4" d="M1364.5,678.6v-10.7h-7.6V660h-10.4v45.3h10.4v-26.8H1364.5z"/>
			<path class="st4" d="M1201.1,671.7v-3.9h-22v10.7h11.7v27h10.4V671.7L1201.1,671.7z"/>
			<circle class="st4" cx="1196.2" cy="657.1" r="5.3"/>
			<path class="st4" d="M1403.1,694.5v-26.8h-9v2.8c-0.9-0.6-1.9-1.1-3-1.5c-2.3-0.9-4.8-1.4-7.2-1.3c-2.5,0-4.8,0.5-7.1,1.5
				c-2.3,1-4.4,2.4-6.1,4.1c-1.8,1.7-3.1,3.8-4.1,6.1c-0.9,2.2-1.4,4.7-1.4,7.1c0,2.5,0.5,4.8,1.3,7.1c0.9,2.3,2.2,4.3,3.9,6.1
				c1.7,1.8,3.8,3.3,6.1,4.3c2.4,1,4.9,1.5,7.4,1.5c2.5,0,5.1-0.5,7.4-1.5c1.1-0.5,2.1-1,3-1.6v2.7h15.2v-10.7L1403.1,694.5z
				 M1390.2,692.8c-3.1,3.3-8.4,3.5-11.7,0.3c-0.1-0.1-0.2-0.2-0.3-0.3c-1.6-1.7-2.5-3.9-2.5-6.2c0-2.4,0.8-4.6,2.5-6.3
				c3.1-3.3,8.4-3.5,11.7-0.3c0.2,0.1,0.2,0.2,0.3,0.3c1.6,1.7,2.5,4,2.5,6.3C1392.6,688.9,1391.8,691.1,1390.2,692.8L1390.2,692.8z
				"/>
		</g>
	</g>
</g>
</svg>
