<?xml version="1.0" standalone="no"?>
<!DOCTYPE svg PUBLIC "-//W3C//DTD SVG 20010904//EN"
 "http://www.w3.org/TR/2001/REC-SVG-20010904/DTD/svg10.dtd">
<svg version="1.0" xmlns="http://www.w3.org/2000/svg"
 width="768.000000pt" height="768.000000pt" viewBox="0 0 768.000000 768.000000"
 preserveAspectRatio="xMidYMid meet">

<g transform="translate(0.000000,768.000000) scale(0.100000,-0.100000)"
fill="#000000" stroke="none">
<path d="M4670 3855 l0 -425 45 0 45 0 0 425 0 425 -45 0 -45 0 0 -425z"/>
<path d="M3850 3865 l0 -324 43 -12 c64 -18 194 -15 242 5 88 38 128 102 128
211 1 160 -102 245 -265 218 l-58 -9 0 118 0 118 -45 0 -45 0 0 -325z m239 9
c96 -38 108 -199 19 -254 -33 -20 -99 -26 -146 -14 -22 6 -23 9 -20 133 l3
126 35 12 c47 16 63 16 109 -3z"/>
<path d="M2260 4020 l0 -130 -130 0 -130 0 0 -45 0 -44 128 -3 127 -3 3 -142
3 -143 44 0 45 0 0 145 0 145 125 0 125 0 0 45 0 45 -125 0 -125 0 0 130 0
130 -45 0 -45 0 0 -130z"/>
<path d="M1480 3935 l0 -65 -60 0 c-57 0 -60 -1 -60 -25 0 -24 3 -25 60 -25
l60 0 0 -65 c0 -58 2 -65 20 -65 18 0 20 7 20 65 l0 65 60 0 c57 0 60 1 60 25
0 24 -3 25 -60 25 l-60 0 0 65 c0 58 -2 65 -20 65 -18 0 -20 -7 -20 -65z"/>
<path d="M3293 3965 c-8 -13 -15 -14 -37 -5 -43 16 -127 12 -172 -9 -74 -34
-114 -109 -114 -215 1 -100 41 -166 125 -202 48 -21 191 -24 248 -5 l37 13 2
189 c1 104 2 201 2 217 1 25 -2 27 -41 30 -30 2 -44 -1 -50 -13z m-37 -90 l35
-14 -3 -128 -3 -128 -62 -3 c-95 -4 -136 25 -157 111 -8 34 10 105 32 131 21
23 69 45 100 46 12 0 38 -7 58 -15z"/>
<path d="M6320 3964 c0 -12 -6 -15 -22 -9 -45 14 -137 17 -171 6 -87 -29 -146
-139 -133 -248 10 -89 52 -145 131 -179 48 -20 178 -23 243 -5 l42 12 0 219 0
220 -45 0 c-35 0 -45 -4 -45 -16z m-25 -98 c24 -16 25 -20 25 -129 0 -75 -4
-117 -12 -125 -17 -17 -113 -15 -149 3 -93 48 -92 206 2 257 39 22 95 19 134
-6z"/>
<path d="M5317 3955 c-117 -41 -171 -196 -113 -322 28 -59 75 -95 149 -114 54
-13 159 -7 200 12 23 10 27 18 27 55 l0 43 -36 -15 c-47 -20 -151 -23 -191 -5
-36 15 -73 66 -73 100 0 21 3 21 160 21 l160 0 0 43 c-1 142 -142 233 -283
182z m161 -100 c12 -14 22 -35 22 -46 0 -18 -8 -19 -105 -19 -112 0 -121 5
-87 46 49 58 128 67 170 19z"/>
<path d="M6820 3795 c0 -184 6 -206 62 -247 29 -20 44 -23 130 -23 105 0 128
9 172 69 19 25 21 44 24 197 l3 169 -50 0 -51 0 0 -163 c0 -157 -1 -164 -22
-184 -47 -43 -141 -34 -167 15 -7 12 -11 84 -11 176 l0 156 -45 0 -45 0 0
-165z"/>
<path d="M7318 3935 c-12 -27 2 -75 22 -75 7 0 4 7 -4 16 -9 8 -16 24 -16 34
0 10 7 26 16 34 8 9 11 16 4 16 -6 0 -16 -11 -22 -25z"/>
<path d="M7380 3956 c0 -2 7 -7 16 -10 8 -3 12 -2 9 4 -6 10 -25 14 -25 6z"/>
<path d="M7411 3913 c0 -12 -8 -29 -17 -37 -8 -9 -11 -16 -5 -16 15 0 33 38
28 58 -4 13 -5 11 -6 -5z"/>
<path d="M560 3635 l0 -95 -85 0 c-84 0 -85 0 -85 -25 0 -25 1 -25 85 -25 l84
0 3 -92 c3 -93 3 -93 30 -96 l27 -3 3 93 3 93 83 3 c79 3 82 4 82 27 0 23 -3
24 -82 27 l-83 3 -3 93 -3 92 -29 0 -30 0 0 -95z"/>
<path d="M1280 3635 l0 -95 -85 0 c-84 0 -85 0 -85 -25 0 -25 1 -25 85 -25
l85 0 0 -95 0 -95 30 0 30 0 0 95 0 95 85 0 c84 0 85 0 85 25 0 25 -1 25 -85
25 l-85 0 0 95 0 95 -30 0 -30 0 0 -95z"/>
<path d="M930 3400 l0 -59 -57 -3 c-51 -3 -58 -6 -61 -25 -3 -22 0 -23 57 -23
l61 0 0 -65 c0 -63 1 -65 25 -65 24 0 25 2 25 65 l0 65 55 0 c52 0 55 1 55 25
0 24 -3 25 -55 25 l-55 0 0 60 c0 57 -1 60 -25 60 -24 0 -25 -3 -25 -60z"/>
</g>
</svg>
